#N canvas 946 575 389 335 10;
#X obj 43 195 vline~;
#X obj 29 225 *~;
#X obj 184 17 inlet;
#X obj 29 256 outlet~;
#X obj 29 56 phasor~ 10;
#X obj 29 117 osc~;
#X msg 43 171 1 0 \, 0 100 0;
#X obj 29 77 *~ \$2;
#X obj 29 97 +~ \$1;
#X msg 108 28 0;
#X msg 78 99 4.712;
#X connect 0 0 1 1;
#X connect 1 0 3 0;
#X connect 2 0 6 0;
#X connect 2 0 9 0;
#X connect 2 0 10 0;
#X connect 4 0 7 0;
#X connect 5 0 1 0;
#X connect 6 0 0 0;
#X connect 7 0 8 0;
#X connect 8 0 5 0;
#X connect 9 0 4 1;
#X connect 10 0 5 1;
