#N canvas 70 279 626 300 10;
#X obj 67 58 inlet~;
#X obj 68 268 outlet~;
#X obj 172 60 inlet;
#X obj 347 60 inlet;
#X text 65 39 audio in;
#X obj 67 143 delwrite~ \$0-delname 1000;
#X obj 70 218 vline~;
#X msg 70 196 \$1 200;
#X obj 69 238 vd~ \$0-delname;
#X obj 172 102 f \$1;
#X obj 123 178 *~ \$2;
#X text 168 28 delay time range: 0-1000 (ms) default;
#X text 342 43 feedback level;
#X obj 180 81 loadbang;
#X connect 0 0 5 0;
#X connect 2 0 9 0;
#X connect 3 0 10 1;
#X connect 6 0 8 0;
#X connect 7 0 6 0;
#X connect 8 0 1 0;
#X connect 8 0 10 0;
#X connect 9 0 7 0;
#X connect 10 0 5 0;
#X connect 13 0 9 0;
