#N canvas 218 496 389 335 10;
#X obj 153 175 vline~;
#X msg 153 48 1 0 \, 0 500 0;
#X obj 139 205 *~;
#X obj 153 23 inlet;
#X obj 139 236 outlet~;
#X obj 140 142 osc~ \$1;
#X obj 71 55 loadbang;
#X obj 71 78 f \$1;
#X obj 71 99 mtof;
#X connect 0 0 2 1;
#X connect 1 0 0 0;
#X connect 2 0 4 0;
#X connect 3 0 1 0;
#X connect 5 0 2 0;
#X connect 6 0 7 0;
#X connect 7 0 8 0;
#X connect 8 0 5 0;
