#N canvas 228 467 450 300 10;
#X obj 26 80 tgl 15 0 empty empty empty 17 7 0 10 -262144 -1 -1 0 1
;
#X msg 90 139 \; pd dsp 1;
#X obj 26 109 route 0 1;
#X msg 26 140 \; pd dsp 0;
#X obj 26 30 key;
#X obj 26 55 select 32;
#X text 101 55 spacebar;
#X connect 0 0 2 0;
#X connect 2 0 3 0;
#X connect 2 1 1 0;
#X connect 4 0 5 0;
#X connect 5 0 0 0;
