#N canvas 1 56 450 336 10;
#X obj 47 67 - 2048;
#X obj 97 67 - 2048;
#X floatatom 47 107 5 0 0 0 - - -, f 5;
#X floatatom 97 107 5 0 0 0 - - -, f 5;
#X obj 99 202 expr (atan2($f1 \, $f2) + 3.14) / 6.28;
#X obj 47 160 expr sqrt($f1*$f1 + $f2*$f2) / 2048;
#X obj 147 106 / 4096;
#X obj 47 276 outlet;
#X obj 99 276 outlet;
#X obj 147 276 outlet;
#X obj 47 24 inlet;
#X obj 97 24 inlet;
#X obj 147 24 inlet;
#X text 205 276 outputs range from 0-1;
#X connect 0 0 2 0;
#X connect 1 0 3 0;
#X connect 2 0 4 0;
#X connect 2 0 5 0;
#X connect 3 0 4 1;
#X connect 3 0 5 1;
#X connect 4 0 8 0;
#X connect 5 0 7 0;
#X connect 6 0 9 0;
#X connect 10 0 0 0;
#X connect 11 0 1 0;
#X connect 12 0 6 0;
