#N canvas 220 169 1334 677 10;
#X text 97 61 Vendor and Product hex values for "In2Games Ltd. Game-Trak
V1.3";
#X msg 107 106 open 0x14b7 0x0982;
#X msg 132 128 info;
#X text 166 128 Stuff about the GameTrak;
#X msg 141 162 refresh;
#X text 193 162 Refresh device list;
#X obj 170 232 nbx 5 14 -1e+37 1e+37 0 0 empty empty empty 0 -8 0 10
-262144 -1 -1 10 256;
#X text 228 229 poll delay (ms);
#X text 227 249 start polling;
#X msg 183 278 poll 0;
#X text 232 276 stop polling;
#X obj 19 8 loadbang;
#X obj 18 26 s load;
#X obj 107 86 r load;
#X obj 460 162 r load;
#X obj 81 23 inlet;
#X obj 12 307 route key abs;
#X obj 13 447 tgl 25 0 empty empty empty 0 -6 0 8 -195568 -1 -1 0 1
;
#X obj 43 447 tgl 25 0 empty empty empty 0 -6 0 8 -195568 -1 -1 0 1
;
#X obj 73 447 tgl 25 0 empty empty empty 0 -6 0 8 -195568 -1 -1 0 1
;
#X obj 103 447 tgl 25 0 empty empty empty 0 -6 0 8 -195568 -1 -1 0
1;
#X obj 133 447 tgl 25 0 empty empty empty 0 -6 0 8 -195568 -1 -1 0
1;
#X obj 163 447 tgl 25 0 empty empty empty 0 -6 0 8 -195568 -1 -1 0
1;
#X obj 193 447 tgl 25 0 empty empty empty 0 -6 0 8 -195568 -1 -1 0
1;
#X obj 223 447 tgl 25 0 empty empty empty 0 -6 0 8 -195568 -1 -1 0
1;
#X obj 253 447 tgl 25 0 empty empty empty 0 -6 0 8 -195568 -1 -1 0
1;
#X obj 283 447 tgl 25 0 empty empty empty 0 -6 0 8 -195568 -1 -1 0
1;
#X obj 313 447 tgl 25 0 empty empty empty 0 -6 0 8 -195568 -1 -1 0
1;
#X obj 343 447 tgl 25 0 empty empty empty 0 -6 0 8 -195568 -1 -1 0
1;
#X obj 13 405 route btn_0 btn_1 btn_2 btn_3 btn_4 btn_5 btn_6 btn_7
btn_8 btn_9 btn_10 btn_11;
#X msg 148 180 print;
#X text 190 180 Print the device and element lists;
#N canvas 757 80 411 235 see 0;
#N canvas 108 318 543 264 route 0;
#X obj 27 14 inlet;
#X obj 72 226 outlet;
#X obj 19 226 outlet;
#X obj 172 226 outlet;
#X obj 222 204 symbol;
#X obj 222 226 outlet;
#X obj 272 204 symbol;
#X obj 272 226 outlet;
#X obj 322 204 symbol;
#X obj 322 226 outlet;
#X obj 372 204 symbol;
#X obj 372 226 outlet;
#X obj 122 225 outlet;
#X obj 422 204 symbol;
#X obj 422 226 outlet;
#X obj 472 204 symbol;
#X obj 472 226 outlet;
#X obj 26 63 route open device poll total product manufacturer transport
type vendorID productID;
#X connect 0 0 17 0;
#X connect 4 0 5 0;
#X connect 6 0 7 0;
#X connect 8 0 9 0;
#X connect 10 0 11 0;
#X connect 13 0 14 0;
#X connect 15 0 16 0;
#X connect 17 0 2 0;
#X connect 17 1 1 0;
#X connect 17 2 12 0;
#X connect 17 3 3 0;
#X connect 17 4 4 0;
#X connect 17 5 6 0;
#X connect 17 6 8 0;
#X connect 17 7 10 0;
#X connect 17 8 13 0;
#X connect 17 9 15 0;
#X restore 117 70 pd route info;
#X obj 81 96 tgl 15 0 empty empty open 0 -6 0 8 -262144 -1 -1 1 1;
#X obj 110 22 inlet;
#X obj 123 43 print info;
#X symbolatom 304 93 0 0 0 0 productID - -;
#X symbolatom 304 112 0 0 0 0 vendorID - -;
#X symbolatom 304 151 0 0 0 0 transport - -;
#X symbolatom 304 171 0 0 0 0 manufacturer - -;
#X symbolatom 186 192 0 0 0 0 product - -;
#X floatatom 97 140 5 0 0 0 device - -, f 5;
#X floatatom 97 162 5 0 0 0 poll - -, f 5;
#X symbolatom 304 131 0 0 0 0 type - -;
#X floatatom 97 182 5 0 0 0 total - -, f 5;
#X connect 0 0 1 0;
#X connect 0 1 9 0;
#X connect 0 2 10 0;
#X connect 0 3 12 0;
#X connect 0 4 8 0;
#X connect 0 5 7 0;
#X connect 0 6 6 0;
#X connect 0 7 11 0;
#X connect 0 8 5 0;
#X connect 0 9 4 0;
#X connect 2 0 0 0;
#X connect 2 0 3 0;
#X restore 162 304 pd see device info;
#X floatatom 54 362 6 0 0 0 - - -, f 6;
#X floatatom 104 362 6 0 0 0 - - -, f 6;
#X floatatom 154 362 6 0 0 0 - - -, f 6;
#X floatatom 204 362 6 0 0 0 - - -, f 6;
#X floatatom 254 362 6 0 0 0 - - -, f 6;
#X floatatom 304 362 6 0 0 0 - - -, f 6;
#X floatatom 352 346 6 0 0 0 - - -, f 6;
#X floatatom 432 344 5 0 0 0 - - -, f 5;
#X obj 54 326 route abs_x abs_y abs_z abs_rx abs_ry abs_rz;
#X obj 352 325 route abs_hat0x abs_hat0y;
#X obj 353 368 tgl 15 0 empty empty empty 0 -6 0 8 -262144 -1 -1 0
-1;
#X obj 433 369 tgl 15 0 empty empty empty 0 -6 0 8 -262144 -1 -1 0
-1;
#X msg 143 144 close;
#X text 180 144 Close the device;
#X obj 107 283 hid 0;
#X text 133 7 NOTE: If you instantiate more than one of this object
in the same patch \, neither object will get all of the data from your
GameTrak. So don't do that pls.;
#X obj 54 384 outlet;
#X obj 11 483 outlet;
#X obj 103 384 outlet;
#X obj 154 385 outlet;
#X obj 204 385 outlet;
#X obj 253 385 outlet;
#X obj 304 384 outlet;
#X obj 448 191 delay 100;
#X msg 168 208 set 10;
#X obj 257 211 delay 10;
#X msg 167 253 poll \$1;
#X obj 229 210 bng 15 250 50 0 empty empty empty 17 7 0 10 -262144
-1 -1;
#X connect 1 0 47 0;
#X connect 2 0 47 0;
#X connect 4 0 47 0;
#X connect 6 0 59 0;
#X connect 9 0 47 0;
#X connect 11 0 12 0;
#X connect 13 0 1 0;
#X connect 14 0 56 0;
#X connect 15 0 47 0;
#X connect 16 0 29 0;
#X connect 16 1 41 0;
#X connect 17 0 50 0;
#X connect 29 0 17 0;
#X connect 29 1 18 0;
#X connect 29 2 19 0;
#X connect 29 3 20 0;
#X connect 29 4 21 0;
#X connect 29 5 22 0;
#X connect 29 6 23 0;
#X connect 29 7 24 0;
#X connect 29 8 25 0;
#X connect 29 9 26 0;
#X connect 29 10 27 0;
#X connect 29 11 28 0;
#X connect 30 0 47 0;
#X connect 33 0 49 0;
#X connect 34 0 51 0;
#X connect 35 0 52 0;
#X connect 36 0 53 0;
#X connect 37 0 54 0;
#X connect 38 0 55 0;
#X connect 39 0 43 0;
#X connect 40 0 44 0;
#X connect 41 0 33 0;
#X connect 41 1 34 0;
#X connect 41 2 35 0;
#X connect 41 3 36 0;
#X connect 41 4 37 0;
#X connect 41 5 38 0;
#X connect 41 6 42 0;
#X connect 42 0 39 0;
#X connect 42 1 40 0;
#X connect 47 0 16 0;
#X connect 47 1 32 0;
#X connect 56 0 57 0;
#X connect 57 0 6 0;
#X connect 57 0 60 0;
#X connect 58 0 59 0;
#X connect 59 0 47 0;
#X connect 60 0 58 0;
