#N canvas 339 130 599 521 10;
#X text 50 59 Vendor and Product hex values for "In2Games Ltd. Game-Trak
V1.3";
#X obj 107 273 route key abs;
#X obj 107 413 tgl 25 0 empty empty empty 0 -6 0 8 -195568 -1 -1 0
1;
#X floatatom 224 419 6 0 0 0 - - -, f 6;
#X floatatom 267 419 6 0 0 0 - - -, f 6;
#X obj 224 352 route abs_x abs_y abs_z abs_rx abs_ry abs_rz;
#X text 23 13 NOTE: If you instantiate more than one of this object
in the same patch \, neither object will get all of the data from your
GameTrak. So don't do that pls.;
#X obj 107 391 route btn_0;
#X obj 224 443 s LX;
#X obj 107 443 s FOOTSWITCH;
#X obj 267 443 s LY;
#X floatatom 311 418 5 0 0 0 - - -, f 5;
#X obj 311 376 expr 4096 - $f1;
#X obj 311 443 s LZ;
#X floatatom 354 419 6 0 0 0 - - -, f 6;
#X floatatom 398 419 6 0 0 0 - - -, f 6;
#X floatatom 441 419 5 0 0 0 - - -, f 5;
#X obj 441 376 expr 4096 - $f1;
#X obj 354 443 s RX;
#X obj 398 443 s RY;
#X obj 441 443 s RZ;
#X obj 107 230 hid;
#X obj 107 179 tgl 40 0 empty empty empty 17 7 0 10 -4034 -1 -1 1 1
;
#X obj 107 130 loadbang;
#X obj 107 154 t b b;
#X msg 157 190 open 0x14b7 0x0982;
#X connect 1 0 7 0;
#X connect 1 1 5 0;
#X connect 2 0 9 0;
#X connect 3 0 8 0;
#X connect 4 0 10 0;
#X connect 5 0 3 0;
#X connect 5 1 4 0;
#X connect 5 2 12 0;
#X connect 5 3 14 0;
#X connect 5 4 15 0;
#X connect 5 5 17 0;
#X connect 7 0 2 0;
#X connect 11 0 13 0;
#X connect 12 0 11 0;
#X connect 14 0 18 0;
#X connect 15 0 19 0;
#X connect 16 0 20 0;
#X connect 17 0 16 0;
#X connect 21 0 1 0;
#X connect 22 0 21 0;
#X connect 23 0 24 0;
#X connect 24 0 22 0;
#X connect 24 1 25 0;
#X connect 25 0 21 0;
