#N canvas 23 220 471 436 10;
#X obj -46 251 tabwrite~ temp;
#X msg 120 162 stop;
#X obj -43 373 table temp 2.646e+06;
#X text 91 372 60 sec;
#X obj 168 319 tabplay~ temp;
#X obj 299 289 bng 15 250 50 0 empty empty empty 17 7 0 10 -262144
-1 -1;
#X obj 168 163 timer;
#X floatatom 168 180 5 0 0 0 - - -, f 5;
#X msg 168 277 0;
#X obj 168 295 pack f f;
#X obj 168 259 t b f;
#X obj 173 204 * 44.1;
#X obj 198 235 print timething;
#X obj 299 304 spigot;
#X obj -45 90 inlet~;
#X text -46 66 Signal;
#X text 50 64 Bang Start;
#X obj 59 89 inlet;
#X obj 153 88 inlet;
#X text 144 63 Bang Loop;
#X obj 282 87 inlet;
#X text 266 62 Toggle Stop;
#X msg 64 159 start 0;
#X obj 168 384 outlet~;
#X connect 1 0 0 0;
#X connect 4 0 23 0;
#X connect 4 1 5 0;
#X connect 5 0 13 0;
#X connect 6 0 7 0;
#X connect 7 0 11 0;
#X connect 8 0 9 0;
#X connect 9 0 4 0;
#X connect 10 0 8 0;
#X connect 10 1 9 1;
#X connect 11 0 12 0;
#X connect 11 0 10 0;
#X connect 13 0 9 0;
#X connect 14 0 0 0;
#X connect 14 0 23 0;
#X connect 17 0 22 0;
#X connect 17 0 6 0;
#X connect 18 0 1 0;
#X connect 18 0 6 1;
#X connect 20 0 13 1;
#X connect 22 0 0 0;
