#N canvas 55 322 674 344 10;
#X obj 39 287 outlet~;
#X obj 53 202 osc~;
#X obj 37 229 *~;
#X text 100 288 envelope;
#X obj 15 203 osc~;
#X obj 112 37 inlet;
#X obj 112 216 vline~;
#X obj 235 35 inlet;
#X text 232 13 bpm;
#X msg 112 195 1 30 \, 0 30 \$1;
#X obj 38 254 *~;
#X obj 53 179 / 120;
#X obj 112 173 expr $f1*60000/$f2-60;
#X msg 36 116 0.785398;
#X text 39 85 set phase to pi/4;
#X text 110 13 npulses;
#X text 330 33 nLFO - generate a finite number of LFO pulses left inlet
is number of pulses - acts as a trig. right inlet is bpm \, e.g. 120
- set this first;
#X connect 1 0 2 1;
#X connect 2 0 10 0;
#X connect 4 0 2 0;
#X connect 5 0 12 0;
#X connect 5 0 13 0;
#X connect 6 0 10 1;
#X connect 7 0 11 0;
#X connect 7 0 12 1;
#X connect 9 0 6 0;
#X connect 10 0 0 0;
#X connect 11 0 4 0;
#X connect 11 0 1 0;
#X connect 12 0 9 0;
#X connect 13 0 4 1;
#X connect 13 0 1 1;
