#N canvas 95 662 215 272 10;
#X obj 30 24 inlet;
#X obj 30 196 outlet;
#X obj 30 155 spigot;
#X obj 30 70 t b b;
#X obj 63 103 random 100;
#X obj 63 127 < \$1;
#X obj 129 25 inlet;
#X connect 0 0 3 0;
#X connect 2 0 1 0;
#X connect 3 0 2 0;
#X connect 3 1 4 0;
#X connect 4 0 5 0;
#X connect 5 0 2 1;
#X connect 6 0 5 1;
