#N canvas 202 80 855 945 10;
#X obj 282 168 soundfiler;
#N canvas 0 0 450 300 (subpatch) 0;
#X array \$0-timewarpL 375439 float 2;
#X coords 0 1 375439 -1 200 140 1;
#X restore 590 79 graph;
#X text 453 -46 right inlet is |symbol filename( or [openpanel];
#X obj 115 93 inlet;
#X text 10 -52 left inlet controls the playback rate \, as a fraction
of real-time (so 1=normal);
#X obj 115 458 outlet~;
#X obj 16 499 snapshot~;
#X obj 16 471 metro 50;
#X obj 16 444 tgl 15 0 empty empty empty 17 7 0 10 -262144 -1 -1 1
1;
#X obj 593 225 hsl 195 15 0 1 0 0 empty position empty -2 -8 0 10 -262144
-1 -1 19400 1;
#X obj 16 543 s position;
#X obj 282 118 pack s f;
#X obj 347 96 f \$0;
#X obj 347 75 loadbang;
#X obj 282 95 openpanel;
#X obj 282 56 bng 15 250 50 0 empty empty empty 17 7 0 10 -232576 -1
-1;
#X msg 282 142 read -resize \$1 \$2-timewarpL \$2-timewarpR;
#N canvas 0 0 450 300 (subpatch) 0;
#X array \$0-timewarpR 375439 float 2;
#X coords 0 1 375439 -1 200 140 1;
#X restore 590 269 graph;
#X obj 593 415 hsl 195 15 0 1 0 0 empty position empty -2 -8 0 10 -262144
-1 -1 19400 1;
#X obj 167 483 outlet~;
#X obj 116 436 tabread4~ \$0-timewarpL;
#X obj 168 461 tabread4~ \$0-timewarpR;
#X obj 240 95 inlet;
#X obj 115 379 vline~;
#X obj 115 321 pack f f;
#X obj 232 195 f;
#X obj 115 152 t f b;
#X obj 115 279 expr $f2/($f1*44.1);
#X obj 16 520 /;
#X msg 116 348 0 0 \, \$2 \$1;
#X connect 0 0 25 1;
#X connect 0 0 28 1;
#X connect 3 0 26 0;
#X connect 6 0 28 0;
#X connect 7 0 6 0;
#X connect 8 0 7 0;
#X connect 11 0 16 0;
#X connect 12 0 11 1;
#X connect 13 0 12 0;
#X connect 14 0 11 0;
#X connect 15 0 14 0;
#X connect 16 0 0 0;
#X connect 20 0 5 0;
#X connect 21 0 19 0;
#X connect 22 0 11 0;
#X connect 23 0 20 0;
#X connect 23 0 21 0;
#X connect 23 0 6 0;
#X connect 24 0 29 0;
#X connect 25 0 24 1;
#X connect 25 0 27 1;
#X connect 26 0 27 0;
#X connect 26 1 25 0;
#X connect 27 0 24 0;
#X connect 28 0 10 0;
#X connect 29 0 23 0;
#X coords 0 -1 1 1 100 25 1 200 50;
