#N canvas 853 552 300 242 10;
#X obj 30 25 key;
#X obj 70 123 + 1;
#X obj 30 123 - 1;
#X floatatom 52 158 5 0 0 0 - - -, f 5;
#X obj 70 102 f 0;
#X obj 30 102 f 0;
#X obj 70 81 bng 15 250 50 0 empty empty empty 17 7 0 10 -262144 -1
-1;
#X obj 30 80 bng 15 250 50 0 empty empty empty 17 7 0 10 -262144 -1
-1;
#X obj 52 183 outlet;
#X obj 150 123 + 1;
#X obj 110 123 - 1;
#X floatatom 132 158 5 0 0 0 - - -, f 5;
#X obj 150 102 f 0;
#X obj 110 102 f 0;
#X obj 150 81 bng 15 250 50 0 empty empty empty 17 7 0 10 -262144 -1
-1;
#X obj 110 80 bng 15 250 50 0 empty empty empty 17 7 0 10 -262144 -1
-1;
#X obj 30 55 select 104 108 106 107;
#X obj 132 183 outlet;
#X connect 0 0 16 0;
#X connect 1 0 3 0;
#X connect 2 0 3 0;
#X connect 3 0 4 1;
#X connect 3 0 5 1;
#X connect 3 0 8 0;
#X connect 4 0 1 0;
#X connect 5 0 2 0;
#X connect 6 0 4 0;
#X connect 7 0 5 0;
#X connect 9 0 11 0;
#X connect 10 0 11 0;
#X connect 11 0 12 1;
#X connect 11 0 13 1;
#X connect 11 0 17 0;
#X connect 12 0 9 0;
#X connect 13 0 10 0;
#X connect 14 0 12 0;
#X connect 15 0 13 0;
#X connect 16 0 7 0;
#X connect 16 1 6 0;
#X connect 16 2 15 0;
#X connect 16 3 14 0;
